<?xml version="1.0" encoding="utf-8"?>
<!-- Generator: Adobe Illustrator 20.1.0, SVG Export Plug-In . SVG Version: 6.00 Build 0)  -->
<!DOCTYPE svg PUBLIC "-//W3C//DTD SVG 1.0//EN" "http://www.w3.org/TR/2001/REC-SVG-20010904/DTD/svg10.dtd">
<svg version="1.0" id="Layer_1" xmlns="http://www.w3.org/2000/svg" xmlns:xlink="http://www.w3.org/1999/xlink" x="0px" y="0px"
	 viewBox="0 0 183.6 114.1" style="enable-background:new 0 0 183.6 114.1;" xml:space="preserve">
<g>
	<g>
		<path d="M15.1,12.3c0-1.8-0.7-2.5-1.9-2.5h-2.6v17h2.6c1.1,0,1.9-0.7,1.9-2.4V12.3z M14.6,34.9h-4.1v20.5H0V1h14.6
			C20.1,1,25,4.3,25,11.9v12.2C25,31.7,20.1,34.9,14.6,34.9"/>
		<path d="M44.4,11.9c0-1.5-1.1-2.4-2.5-2.4c-1.4,0-2.5,0.9-2.5,2.4v32.7c0,1.5,1.1,2.4,2.5,2.4c1.4,0,2.5-0.9,2.5-2.4V11.9z
			 M42,56.5c-7.4,0-13.3-5.2-13.3-12.6V12.5C28.7,5.1,34.5,0,42,0c7.4,0,13.2,5.1,13.2,12.5v31.4C55.1,51.4,49.3,56.5,42,56.5"/>
	</g>
	<polygon points="59.9,1 59.9,55.5 81.4,55.5 81.4,46.1 70.3,46.1 70.3,1 	"/>
	<path d="M96.3,17l1.8,21.2h-4.2L96.3,17z M90.3,1l-7.9,54.5h9.5l0.9-8.8H99l0.7,8.8h10.6L102.4,1H90.3z"/>
	<g>
		<path d="M128.2,12.3c0-1.8-0.7-2.5-1.8-2.5h-2.6v15.4h2.6c1.1,0,1.8-0.7,1.8-2.5V12.3z M131,55.5c-1.6,0-2.5-5-2.5-8.4V36.2
			c0-1.4-0.7-2.9-2.2-2.9h-2.5v22.2h-10.6V1h14.6c5.2,0,10.5,3.3,10.5,10.6v10.9c0,2.7-1.6,5.2-4.3,6.7c2.7,1.5,4.5,4,4.5,6.7v10.6
			c0,3.4,0.7,6.2,1.4,8.8v0.2H131z"/>
	</g>
	<rect x="143.2" y="1" width="10.6" height="54.5"/>
	<g>
		<path d="M170.7,56.5c-8.1,0-12.9-4.7-12.9-12.8v-4.7h9.1V44c0,2.2,1.1,3.7,3.4,3.7c2.1,0,3.2-1.3,3.2-3.6c0-4.4-2.6-7.8-6.3-12.4
			c-4.1-4.6-9.1-11.1-9.1-17.9C158,6.4,162.4,0,171.2,0c7,0,11.8,5.1,11.8,12.8v4.7h-9.1v-5.4c0-2-1.1-3.1-2.7-3.1
			c-1.6,0-3,1.1-3,3.2c0,5.2,2.6,7.5,6.4,12.5c4.4,5.3,9,11,9,18.1C183.6,51.4,178,56.5,170.7,56.5"/>
		<path d="M15.1,69.9c0-1.8-0.7-2.5-1.9-2.5h-2.6v17h2.6c1.1,0,1.9-0.7,1.9-2.4V69.9z M14.6,92.5h-4.1v20.5H0V58.6h14.6
			c5.5,0,10.3,3.3,10.3,10.9v12.2C25,89.3,20.1,92.5,14.6,92.5"/>
	</g>
	<path d="M38.6,74.6l1.8,21.2h-4.2L38.6,74.6z M32.6,58.6l-7.9,54.5h9.5l0.9-8.8h6.2l0.7,8.8h10.6l-7.9-54.5H32.6z"/>
	<g>
		<path d="M68.1,114.1c-7.7,0-13.7-5.3-13.7-13.1V70.6c0-7.8,6-13.1,13.7-13.1c7.5,0,12.1,5.2,12.1,12.6v8.3H71v-8.4
			c0-1.6-0.9-2.9-2.9-2.9c-2,0-2.9,1.2-2.9,2.9v31.7c0,1.6,1,2.9,2.9,2.9c2,0,2.9-1.2,2.9-2.9v-8.5h9.2v8.3
			C80.2,109,75.6,114.1,68.1,114.1"/>
	</g>
	<rect x="84.4" y="58.6" width="10.6" height="54.5"/>
	<polygon points="100.1,58.6 100.1,113.1 110.6,113.1 110.6,90 118.4,90 118.4,81.1 110.6,81.1 110.6,67.5 121.6,67.5 121.6,58.6 	
		"/>
	<rect x="125.1" y="58.6" width="10.6" height="54.5"/>
	<g>
		<path d="M153.9,114.1c-7.7,0-13.7-5.3-13.7-13.1V70.6c0-7.8,6-13.1,13.7-13.1c7.5,0,12.1,5.2,12.1,12.6v8.3h-9.2v-8.4
			c0-1.6-0.9-2.9-2.9-2.9c-2,0-2.9,1.2-2.9,2.9v31.7c0,1.6,1,2.9,2.9,2.9c2,0,2.9-1.2,2.9-2.9v-8.5h9.2v8.3
			C166.1,109,161.5,114.1,153.9,114.1"/>
	</g>
</g>
</svg>
